<?xml version="1.0" standalone="no"?>
<!DOCTYPE svg PUBLIC "-//W3C//DTD SVG 20010904//EN"
 "http://www.w3.org/TR/2001/REC-SVG-20010904/DTD/svg10.dtd">
<svg version="1.0" xmlns="http://www.w3.org/2000/svg"
 width="768.000000pt" height="768.000000pt" viewBox="0 0 768.000000 768.000000"
 preserveAspectRatio="xMidYMid meet">
<metadata>
Created by potrace 1.14, written by Peter Selinger 2001-2017
</metadata>
<g transform="translate(0.000000,768.000000) scale(0.100000,-0.100000)"
fill="#000000" stroke="none">
<path d="M3728 7055 c-2 -2 -52 -5 -113 -9 -60 -3 -121 -8 -135 -10 -14 -3
-56 -9 -95 -15 -494 -75 -966 -304 -1312 -634 -164 -157 -323 -364 -398 -517
l-27 -55 -106 -44 c-353 -144 -695 -390 -908 -651 -16 -19 -33 -40 -39 -47
-24 -27 -122 -168 -148 -211 -33 -58 -77 -139 -79 -149 -1 -5 -14 -33 -29 -63
-44 -90 -102 -269 -114 -355 -2 -11 -4 -20 -5 -20 -3 0 -11 -40 -16 -80 -2
-22 -7 -62 -11 -90 -15 -106 -6 -426 14 -490 3 -11 7 -29 8 -40 6 -61 63 -256
100 -340 12 -27 30 -71 40 -97 10 -27 22 -48 26 -48 5 0 9 -6 9 -13 0 -30 143
-249 240 -367 39 -48 175 -186 235 -240 69 -62 250 -193 335 -244 45 -26 132
-72 193 -102 183 -89 179 -86 192 -124 7 -20 24 -62 39 -93 14 -32 26 -62 26
-67 0 -6 5 -10 10 -10 6 0 10 -5 10 -11 0 -11 97 -178 109 -189 3 -3 18 -23
33 -45 15 -22 38 -52 50 -67 13 -15 34 -42 48 -59 43 -56 221 -229 300 -292
185 -148 454 -301 674 -382 101 -37 315 -99 380 -109 19 -3 55 -10 78 -15 24
-6 68 -13 98 -16 30 -3 89 -10 130 -14 73 -9 485 -6 545 3 17 3 50 7 75 11
469 62 930 265 1285 564 37 32 222 218 250 252 73 88 175 234 175 249 0 5 3
10 8 10 4 0 12 10 18 23 10 20 63 127 117 236 19 38 29 47 73 61 69 24 246
109 335 161 41 24 82 48 91 54 41 23 188 128 224 160 145 126 203 184 324 325
85 98 212 309 272 450 39 94 84 221 91 260 3 14 10 45 17 70 7 25 14 58 16 75
3 16 7 46 10 65 3 19 7 58 9 85 2 28 4 50 5 50 9 0 -3 310 -14 365 -3 14 -7
41 -10 60 -6 44 -13 81 -30 147 -8 28 -11 54 -8 57 3 3 1 6 -4 6 -6 0 -16 24
-23 53 -8 28 -17 57 -22 63 -5 6 -10 19 -12 30 -5 37 -117 251 -188 359 -39
61 -74 112 -78 115 -3 3 -28 32 -55 65 -257 312 -642 569 -1078 718 -10 4 -18
13 -18 22 0 8 -3 15 -8 15 -4 0 -18 21 -32 48 -32 60 -101 166 -112 170 -4 2
-8 8 -8 13 0 9 -3 13 -101 129 -234 275 -551 497 -919 643 -112 45 -290 100
-359 112 -19 3 -37 8 -41 10 -14 9 -204 37 -335 50 -60 6 -322 14 -327 10z
m278 -169 c104 -6 192 -18 304 -41 14 -3 39 -8 55 -11 37 -6 101 -22 135 -33
14 -5 43 -14 65 -21 429 -132 806 -385 1078 -725 34 -43 107 -149 104 -152 -2
-2 -35 3 -73 11 -38 8 -91 17 -119 20 -27 4 -66 9 -85 11 -165 22 -493 22
-630 1 -14 -2 -63 -10 -110 -16 -245 -35 -550 -134 -783 -254 l-98 -51 -122
60 c-195 97 -327 147 -516 195 -341 86 -673 105 -1026 60 -38 -5 -81 -12 -95
-15 -13 -2 -40 -7 -60 -10 -19 -3 -62 -12 -95 -19 -33 -8 -61 -13 -62 -12 -4
4 70 111 79 114 4 2 8 10 8 18 0 8 4 14 8 14 4 0 16 14 26 31 20 34 238 257
296 302 19 15 46 37 60 49 40 33 246 168 258 168 6 0 12 4 14 8 3 8 90 52 211
106 160 72 441 151 612 172 28 4 52 8 55 9 3 2 57 6 120 10 63 4 116 8 117 9
4 3 185 -2 269 -8z m-1326 -1090 c80 -3 156 -8 170 -11 14 -3 45 -8 70 -11
257 -33 574 -141 815 -275 l110 -61 50 27 c360 195 658 292 982 321 37 3 79 8
93 10 32 5 337 5 370 0 14 -2 57 -7 95 -11 104 -9 282 -42 390 -73 29 -8 61
-49 70 -89 2 -10 15 -46 29 -80 13 -35 22 -63 20 -63 -3 0 -2 -6 3 -12 4 -7 8
-17 9 -23 9 -48 13 -66 18 -74 3 -4 8 -28 11 -52 3 -24 8 -55 11 -69 22 -102
22 -436 0 -501 -3 -8 -7 -30 -10 -49 -3 -19 -10 -50 -15 -67 -5 -18 -7 -33 -4
-33 3 0 0 -7 -7 -15 -7 -8 -10 -15 -7 -15 6 0 -31 -114 -56 -175 -58 -141
-227 -430 -248 -423 -4 2 -34 28 -66 58 -32 31 -87 80 -123 110 -36 30 -66 58
-68 63 -2 4 -10 7 -17 7 -7 0 -15 4 -17 9 -4 10 -192 140 -216 148 -10 4 -19
9 -22 13 -3 3 -41 24 -85 47 -296 152 -567 233 -950 282 -69 9 -521 7 -560 -2
-11 -2 -42 -8 -70 -11 -27 -4 -66 -10 -85 -12 -59 -9 -240 -51 -330 -77 -360
-105 -760 -340 -1002 -589 -25 -26 -50 -48 -55 -48 -9 0 -93 120 -93 133 0 4
-8 15 -19 26 -10 10 -28 41 -41 70 -13 28 -27 51 -32 51 -4 0 -8 6 -8 14 0 8
-9 31 -19 53 -44 89 -103 258 -115 331 -2 15 -5 27 -6 27 -1 0 -3 16 -5 35 -2
19 -4 35 -5 35 -3 0 -10 41 -15 99 -3 32 -8 63 -12 69 -3 6 -1 7 5 3 15 -9 15
-1 2 24 -6 12 -7 21 0 25 5 3 6 16 2 28 -6 17 -8 102 -2 102 0 0 3 25 5 55 5
83 27 202 55 305 6 22 14 50 17 63 3 12 10 22 15 22 5 0 6 4 3 10 -3 5 1 23
10 40 8 16 15 31 14 32 0 2 5 15 12 31 10 22 25 31 78 47 175 51 373 85 561
96 63 4 117 8 118 10 2 1 9 1 15 -1 7 -2 77 -6 157 -9z m3555 -242 c336 -162
655 -434 825 -704 19 -30 37 -57 40 -60 15 -15 130 -244 130 -260 0 -6 4 -18
9 -28 10 -17 21 -47 28 -69 1 -7 5 -19 6 -25 2 -7 7 -20 10 -28 18 -48 26 -83
21 -91 -3 -5 -1 -9 3 -9 5 0 9 -8 10 -17 1 -25 12 -100 18 -126 17 -70 20
-424 4 -437 -4 -3 -9 -27 -12 -55 -7 -56 -10 -71 -27 -135 -7 -25 -14 -53 -15
-62 -2 -9 -9 -26 -15 -37 -6 -12 -9 -21 -6 -21 3 0 -2 -17 -10 -37 -9 -21 -21
-51 -27 -68 -27 -66 -122 -244 -168 -311 -155 -230 -390 -451 -644 -605 -77
-47 -275 -149 -288 -149 -3 0 -1 17 3 37 5 20 8 39 8 42 0 3 1 9 2 14 5 13 6
22 15 77 4 30 9 66 10 80 0 14 3 30 6 35 3 6 4 80 3 165 -2 191 -8 240 -46
410 -12 52 -22 97 -23 100 0 3 -9 30 -20 60 -11 30 -20 57 -20 60 -1 3 -9 23
-19 45 -10 22 -19 45 -20 50 -2 14 -66 138 -77 149 -5 6 -9 16 -9 23 0 8 -5
19 -10 26 -6 7 -40 57 -77 111 -36 55 -71 106 -79 114 -19 18 -19 18 17 63 47
59 116 165 124 189 3 11 11 20 16 20 5 0 9 6 9 14 0 8 7 22 16 30 8 9 13 16
10 16 -3 0 10 29 29 65 19 36 35 69 35 74 0 5 12 35 27 67 14 33 27 66 29 74
3 19 8 35 24 90 20 68 21 73 23 98 0 12 4 22 8 22 4 0 6 8 5 17 -2 10 1 33 6
53 27 115 29 396 3 580 -10 67 -11 72 -23 115 -6 22 -13 51 -16 65 -2 14 -14
52 -25 85 -11 33 -21 63 -21 67 0 11 21 2 165 -68z m-4703 -31 c-30 -103 -52
-203 -57 -253 -2 -25 -4 -45 -5 -45 -5 0 -10 -81 -12 -195 -2 -116 5 -231 17
-290 3 -14 8 -45 11 -70 3 -24 8 -49 12 -54 3 -6 7 -22 9 -36 2 -25 55 -195
72 -235 5 -11 17 -38 26 -60 25 -58 59 -129 65 -135 3 -3 18 -30 33 -60 15
-30 59 -99 97 -152 39 -53 70 -100 70 -102 0 -3 -20 -32 -45 -64 -90 -120
-235 -381 -235 -426 0 -9 -4 -16 -9 -16 -5 0 -12 -15 -16 -32 -4 -18 -9 -35
-10 -38 -1 -3 -4 -12 -8 -20 -16 -40 -53 -188 -62 -250 -4 -24 -8 -47 -10 -51
-8 -11 -19 -185 -18 -284 0 -107 10 -224 26 -305 3 -14 8 -43 12 -64 l8 -39
-99 52 c-92 49 -257 153 -313 197 -231 183 -383 352 -508 564 -48 83 -111 208
-116 233 -1 6 -4 14 -7 17 -5 4 -50 137 -57 165 -1 6 -4 20 -7 33 -3 13 -7 31
-10 40 -8 24 -18 82 -21 117 -2 17 -4 30 -6 30 -1 0 -3 16 -4 36 -1 19 -4 40
-6 45 -7 12 -3 255 5 318 10 88 17 124 32 178 8 29 16 62 18 73 8 43 19 81 29
93 5 6 7 12 3 12 -3 0 6 26 20 58 14 31 27 62 28 67 7 25 48 105 56 110 6 4 8
10 5 15 -3 4 2 13 10 20 8 7 15 16 15 21 0 8 80 137 101 163 5 6 30 38 56 71
26 33 64 78 84 100 21 22 46 49 56 60 20 22 113 107 158 145 56 46 200 146
275 190 86 50 243 130 248 125 2 -2 -5 -34 -16 -72z m2558 -977 c555 -68 1022
-284 1384 -639 68 -67 69 -68 50 -89 -33 -37 -137 -135 -179 -168 -22 -17 -42
-35 -45 -38 -3 -4 -18 -16 -35 -28 -16 -11 -60 -42 -97 -67 -37 -26 -70 -47
-73 -47 -4 0 -19 -9 -34 -19 -23 -17 -229 -124 -241 -126 -3 -1 -23 -9 -45
-19 -172 -75 -436 -144 -650 -170 -120 -15 -148 -17 -295 -17 -178 0 -344 13
-456 35 -267 55 -451 115 -644 210 -58 29 -111 58 -219 121 -26 15 -152 106
-186 133 -61 50 -159 138 -174 156 -9 10 -27 28 -39 41 l-24 22 49 50 c146
150 370 313 555 404 35 17 74 36 88 44 106 57 417 156 560 179 19 3 62 10 95
16 33 6 96 13 140 16 44 4 81 8 83 9 6 6 377 -3 432 -9z m-1965 -971 c17 -15
64 -55 105 -87 41 -33 83 -66 93 -74 30 -25 261 -161 328 -194 217 -106 540
-207 759 -235 30 -4 63 -9 73 -11 41 -7 230 -18 332 -18 153 0 324 14 479 39
86 14 347 85 441 120 150 55 365 164 500 253 151 99 228 161 371 301 25 24 47
42 49 40 2 -2 33 -48 68 -102 94 -141 204 -374 223 -472 2 -11 8 -31 13 -45 6
-14 12 -38 15 -55 2 -16 7 -37 10 -45 6 -17 14 -75 22 -165 18 -196 5 -369
-43 -554 -13 -53 -24 -102 -25 -108 -2 -17 -170 -70 -278 -88 -19 -3 -57 -10
-85 -15 -170 -32 -393 -41 -624 -27 -63 4 -117 9 -120 11 -3 2 -28 7 -56 10
-27 3 -61 8 -75 11 -106 21 -141 29 -185 40 -205 54 -416 141 -597 246 -64 38
-85 41 -113 17 -30 -26 -257 -138 -353 -174 -146 -56 -338 -111 -447 -128 -16
-2 -59 -9 -95 -15 -224 -36 -602 -32 -795 9 -22 5 -56 12 -75 15 -131 23 -350
91 -351 110 -2 17 -3 24 -12 45 -9 25 -20 73 -23 100 -1 14 -3 25 -4 25 -4 0
-18 86 -26 162 -8 77 -10 213 -4 213 3 0 5 29 4 65 0 36 2 68 6 70 4 3 6 18 4
35 -2 16 0 30 4 30 4 0 8 10 9 23 1 28 11 92 13 92 1 0 3 10 6 23 14 79 125
358 149 374 5 4 7 8 3 8 -9 0 58 112 119 198 l45 64 57 -55 c31 -30 70 -67 86
-82z m1832 -1429 c257 -129 539 -219 788 -252 28 -3 59 -8 70 -10 52 -10 214
-18 350 -18 233 1 389 18 593 65 45 10 85 19 88 19 7 0 -48 -103 -59 -111 -5
-3 -8 -9 -8 -13 2 -11 -69 -117 -137 -206 -305 -395 -789 -681 -1336 -790 -97
-20 -118 -23 -266 -39 -80 -9 -425 -6 -500 4 -40 5 -211 33 -250 40 -49 9
-273 72 -305 86 -11 4 -65 26 -120 48 -89 36 -203 93 -320 160 -170 98 -392
291 -534 464 -93 115 -243 358 -229 372 2 3 48 -6 101 -20 228 -58 451 -83
697 -79 128 1 299 12 310 19 3 2 29 6 59 10 56 7 61 8 151 26 205 40 460 131
644 229 50 27 94 49 98 49 4 1 55 -23 115 -53z"/>
</g>
</svg>
